PathFileType	4	(X/Y/Z)
DataRate	CameraRate	NumFrames	NumMarkers	Units	OrigDataRate	OrigDataStartFrame	OrigNumFrames
120	120	4	142	mm	120	178	473	
Frame#	Time	 STRN			 T1			 T8			 T10			 T12			 C7			 CLAV			 LANK			 RANK			 LANI			 RANI			 LASI			 RASI			 LPSI			 RPSI			 LSHO			 RSHO			 LTOE			 RTOE			 RHEE			 LHEE			 LKNE			 RKNE			 LKNI			 RKNI			 RIWR			 LIWR			 RELB			 LELB			 RELBIN			 LELBIN			 LOWR			 ROWR			 RCLAV			 LCLAV			 RFHD			 LBHD			 LFHD			 RBHD			 LMT1			 LMT5			 RMT1			 RMT5			 Tracking_L5			 Tracking_L4			 Tracking_L3			 Tracking_L2			 Tracking_L1			 Tracking_T11			 Tracking_T9			 Tracking_T7			 Tracking_T6			 Tracking_T5			 Tracking_T4			 Tracking_T3			 Tracking_T2			 rthumb			 rindex			 rmiddle			 rring			 rpinky			 lthumb			 lindex			 lmiddle			 lring			 lpinky			 ROOT			 Spine1			 Spine2			 Spine3			 LHIPJ			 RHIPJ			 LKJC			 RKJC			 LAJC			 RAJC			 LFOOT			 RFOOT			 NECK			 LCOL			 RCOL			 HEAD			 LSHOULDER			 RSHOULDER			 LELC			 RELC			 LWRIST			 RWRIST			 left_index1			 left_index2			 left_index3			 left_middle1			 left_middle2			 left_middle3			 left_pinky1			 left_pinky2			 left_pinky3			 left_ring1			 left_ring2			 left_ring3			 left_thumb1			 left_thumb2			 left_thumb3			 right_index1			 right_index2			 right_index3			 right_middle1			 right_middle2			 right_middle3			 right_pinky1			 right_pinky2			 right_pinky3			 right_ring1			 right_ring2			 right_ring3			 right_thumb1			 right_thumb2			 right_thumb3			 MASI			 MPSI			 MHIPJ			 CENTER			 Virtual_LWRIST			 Virtual_RWRIST			 Virtual_LAJC			 Virtual_RAJC			 Virtual_LKJC			 Virtual_RKJC			 Virtual_LELC			 Virtual_RELC			 Virtual_Ground_RAJC			 Virtual_Ground_LAJC			 Virtual_Ground_RFOOT			 Virtual_Ground_LFOOT			 Virtual_Ground_RTOE			 Virtual_Ground_LTOE			 Virtual_Ground_RMT1			 Virtual_Ground_LMT1			 Virtual_Ground_RMT5			 Virtual_Ground_LMT5			 Virtual_Ground_RHEE			 Virtual_Ground_LHEE		
		X1	Y1	Z1	X2	Y2	Z2	X3	Y3	Z3	X4	Y4	Z4	X5	Y5	Z5	X6	Y6	Z6	X7	Y7	Z7	X8	Y8	Z8	X9	Y9	Z9	X10	Y10	Z10	X11	Y11	Z11	X12	Y12	Z12	X13	Y13	Z13	X14	Y14	Z14	X15	Y15	Z15	X16	Y16	Z16	X17	Y17	Z17	X18	Y18	Z18	X19	Y19	Z19	X20	Y20	Z20	X21	Y21	Z21	X22	Y22	Z22	X23	Y23	Z23	X24	Y24	Z24	X25	Y25	Z25	X26	Y26	Z26	X27	Y27	Z27	X28	Y28	Z28	X29	Y29	Z29	X30	Y30	Z30	X31	Y31	Z31	X32	Y32	Z32	X33	Y33	Z33	X34	Y34	Z34	X35	Y35	Z35	X36	Y36	Z36	X37	Y37	Z37	X38	Y38	Z38	X39	Y39	Z39	X40	Y40	Z40	X41	Y41	Z41	X42	Y42	Z42	X43	Y43	Z43	X44	Y44	Z44	X45	Y45	Z45	X46	Y46	Z46	X47	Y47	Z47	X48	Y48	Z48	X49	Y49	Z49	X50	Y50	Z50	X51	Y51	Z51	X52	Y52	Z52	X53	Y53	Z53	X54	Y54	Z54	X55	Y55	Z55	X56	Y56	Z56	X57	Y57	Z57	X58	Y58	Z58	X59	Y59	Z59	X60	Y60	Z60	X61	Y61	Z61	X62	Y62	Z62	X63	Y63	Z63	X64	Y64	Z64	X65	Y65	Z65	X66	Y66	Z66	X67	Y67	Z67	X68	Y68	Z68	X69	Y69	Z69	X70	Y70	Z70	X71	Y71	Z71	X72	Y72	Z72	X73	Y73	Z73	X74	Y74	Z74	X75	Y75	Z75	X76	Y76	Z76	X77	Y77	Z77	X78	Y78	Z78	X79	Y79	Z79	X80	Y80	Z80	X81	Y81	Z81	X82	Y82	Z82	X83	Y83	Z83	X84	Y84	Z84	X85	Y85	Z85	X86	Y86	Z86	X87	Y87	Z87	X88	Y88	Z88	X89	Y89	Z89	X90	Y90	Z90	X91	Y91	Z91	X92	Y92	Z92	X93	Y93	Z93	X94	Y94	Z94	X95	Y95	Z95	X96	Y96	Z96	X97	Y97	Z97	X98	Y98	Z98	X99	Y99	Z99	X100	Y100	Z100	X101	Y101	Z101	X102	Y102	Z102	X103	Y103	Z103	X104	Y104	Z104	X105	Y105	Z105	X106	Y106	Z106	X107	Y107	Z107	X108	Y108	Z108	X109	Y109	Z109	X110	Y110	Z110	X111	Y111	Z111	X112	Y112	Z112	X113	Y113	Z113	X114	Y114	Z114	X115	Y115	Z115	X116	Y116	Z116	X117	Y117	Z117	X118	Y118	Z118	X119	Y119	Z119	X120	Y120	Z120	X121	Y121	Z121	X122	Y122	Z122	X123	Y123	Z123	X124	Y124	Z124	X125	Y125	Z125	X126	Y126	Z126	X127	Y127	Z127	X128	Y128	Z128	X129	Y129	Z129	X130	Y130	Z130	X131	Y131	Z131	X132	Y132	Z132	X133	Y133	Z133	X134	Y134	Z134	X135	Y135	Z135	X136	Y136	Z136	X137	Y137	Z137	X138	Y138	Z138	X139	Y139	Z139	X140	Y140	Z140	X141	Y141	Z141	X142	Y142	Z142

178	1.4750	290.289015	-461.109728	1203.003764	322.752029	-270.109653	1484.366179	323.052824	-187.198520	1288.668871	318.310469	-189.056963	1235.567093	312.383652	-198.294222	1181.711197	322.052062	-285.739928	1498.553395	300.217658	-412.903875	1406.315923	395.534188	-205.962092	98.497525	230.755344	-199.331284	85.112765	335.731506	-207.083970	128.297582	289.315939	-211.915389	116.043046	419.250697	-395.511478	928.180516	154.963449	-367.590278	924.494743	369.041711	-175.387159	1013.079762	249.356315	-165.692896	1015.730143	444.127500	-352.150947	1452.728271	180.143595	-318.257719	1462.268710	340.009332	-364.357352	6.220711	258.666605	-368.269116	1.367820	295.476437	-141.039446	47.412705	350.919873	-130.929679	62.982574	458.478332	-374.414593	484.712869	133.196414	-338.551730	472.283661	349.001139	-375.367492	481.402129	245.920613	-359.268576	473.738223	-315.805405	-337.078035	1124.001980	877.250016	-306.120783	1004.054427	-89.895576	-237.396643	1206.609249	674.851775	-254.781723	1165.559173	-47.246903	-284.976035	1137.346506	615.704477	-287.382156	1100.296259	854.679644	-258.779764	975.158215	-308.860868	-293.409258	1080.466986	228.492171	-381.742030	1426.051259	380.602956	-402.911901	1419.588089	255.144894	-448.729962	1677.535892	381.728500	-344.123393	1713.441610	355.188221	-468.981802	1675.705791	283.062100	-322.349668	1714.775205	350.657135	-318.100244	38.743030	415.065885	-292.099297	14.735354	252.628863	-321.823388	29.628647	188.026309	-286.445826	1.918686	306.545734	-187.879920	1051.818132	305.830687	-197.519660	1076.204658	306.264073	-205.263227	1104.955554	306.900233	-206.571057	1130.519152	309.093475	-203.302175	1155.564308	315.534115	-193.615109	1207.958937	321.115166	-187.175125	1262.982845	324.347854	-189.028949	1311.489105	325.965852	-197.396532	1351.759315	326.315194	-208.360493	1384.334445	325.692266	-227.387846	1427.488804	324.894577	-240.659714	1450.994849	323.899746	-254.813880	1468.891144	-426.941067	-408.234626	1061.250925	-462.147087	-379.149705	1041.761994	-461.472899	-360.329419	1023.025870	-442.375511	-349.216312	1015.395641	-423.223406	-329.662591	1008.005500	976.326406	-341.413617	906.372845	992.215216	-313.402891	882.835984	985.756636	-294.395745	870.001793	966.943979	-285.203427	872.055054	946.557283	-264.075547	875.223279	296.369106	-305.274487	941.907704	303.426445	-268.677741	1069.050193	308.780223	-313.837647	1195.411444	307.607681	-326.427490	1247.157454	358.946711	-290.155530	860.670745	234.365582	-286.556274	851.587415	414.099962	-371.253997	490.979612	178.997919	-343.772918	478.412509	351.828694	-211.575910	101.440504	272.132427	-213.071734	92.453375	384.582490	-306.152880	2.577675	219.682813	-310.127109	-4.823672	305.327475	-337.659836	1458.260775	384.763956	-341.736078	1359.791279	231.852189	-317.052186	1367.186546	310.186982	-393.972069	1534.213066	518.801451	-330.353349	1348.310351	108.584642	-297.067106	1369.144917	643.338323	-274.389863	1129.786253	-64.362973	-264.384687	1171.713948	866.056859	-283.935755	981.659412	-316.338152	-318.783432	1091.510534	968.384147	-296.665102	948.518574	995.277882	-299.710721	929.372430	995.703757	-306.333750	907.032371	971.393287	-272.637814	940.464139	992.692888	-272.175521	916.596293	991.858006	-280.391157	893.326819	936.066687	-239.916548	927.004039	945.137739	-240.125120	908.711553	945.534825	-248.887360	890.977681	954.001546	-252.586007	933.551192	973.153234	-256.599754	911.308408	972.061038	-267.839462	889.479101	906.973600	-314.669997	958.800495	928.389966	-331.007421	941.792607	952.969193	-337.057620	931.578100	-420.559555	-347.340971	1094.574094	-451.981336	-354.920357	1084.153891	-457.813650	-365.342647	1063.925266	-429.053336	-324.350655	1082.623243	-456.161886	-329.784721	1066.173911	-460.475653	-342.376292	1045.534849	-403.221279	-293.323249	1051.728368	-415.996820	-298.161656	1036.588669	-419.533223	-310.495347	1021.631956	-416.987628	-304.652452	1066.248894	-440.970391	-313.431025	1051.206589	-444.009036	-328.514397	1031.851530	-355.015904	-358.928114	1089.959264	-377.022594	-380.921423	1080.890656	-402.338594	-391.889095	1077.111006	287.107073	-381.550878	926.337630	309.199013	-170.540027	1014.404953	296.656147	-288.355902	856.129080	298.153043	-276.045453	970.371291	865.964830	-282.450274	989.606321	-312.333137	-315.243647	1102.234483	365.632847	-206.523031	113.397554	260.035641	-205.623336	100.577906	403.739735	-374.891043	483.057499	189.558513	-348.910153	473.010942	645.278126	-271.081939	1132.927716	-68.571240	-261.186339	1171.977878	260.035641	-711.902976	100.577906	365.632847	-711.902976	113.397554	219.682813	-711.902976	-4.823672	384.582490	-711.902976	2.577675	258.666605	-711.902976	1.367820	340.009332	-711.902976	6.220711	252.628863	-711.902976	29.628647	350.657135	-711.902976	38.743030	188.026309	-711.902976	1.918686	415.065885	-711.902976	14.735354	295.476437	-711.902976	47.412705	350.919873	-711.902976	62.982574
179	1.4833	290.543705	-461.160719	1191.449761	322.532296	-270.018190	1473.301411	322.810531	-187.246859	1277.563453	317.701846	-189.052999	1224.807858	311.368197	-197.952017	1171.305418	321.590930	-285.268128	1487.482548	299.972057	-412.927091	1395.436764	396.395415	-201.894239	94.497874	232.869089	-195.970312	79.985276	336.508453	-202.419028	123.634711	291.485757	-208.507732	110.737517	417.314321	-396.215141	919.889867	153.004020	-366.301388	915.909350	368.887633	-174.593464	1002.359986	249.081105	-164.013103	1004.736781	444.564044	-353.133351	1440.685630	179.218858	-317.445517	1449.634075	341.788888	-363.037944	7.543757	257.656753	-367.108554	0.226572	297.279179	-138.672441	40.270582	352.691948	-127.574548	55.650666	460.552752	-378.848553	476.262629	130.927518	-341.645986	463.178933	351.199776	-379.021525	472.851336	243.783668	-362.244517	465.077072	-308.505893	-334.017754	1097.021341	865.511119	-304.067641	978.565872	-86.095870	-233.777225	1188.840985	670.169413	-254.742503	1148.807526	-41.488975	-280.486524	1120.149612	608.584166	-285.580397	1085.138202	842.648745	-256.158024	950.814903	-300.986886	-289.871722	1054.050803	227.842376	-381.570339	1414.722681	380.493343	-403.098822	1408.256292	254.190296	-448.110938	1667.450428	380.538791	-343.687505	1704.423785	354.186267	-468.425244	1666.044831	281.812370	-321.870536	1705.469847	352.529794	-315.653056	38.384750	417.343169	-290.974230	14.047816	252.724767	-319.886088	27.544454	187.892154	-284.541637	-0.210330	305.735171	-186.203778	1041.340470	304.813445	-195.919752	1065.892816	305.111080	-203.856230	1094.729424	305.712521	-205.500916	1120.280504	307.927161	-202.605844	1145.295262	314.703554	-193.496093	1197.388411	320.692122	-187.219828	1252.020955	324.246287	-189.075887	1300.315976	326.034576	-197.447628	1340.551257	326.415896	-208.426461	1373.157144	325.791061	-227.532044	1416.409135	324.948072	-240.747482	1439.961314	323.866099	-254.881859	1457.886100	-417.135954	-406.329185	1031.996965	-452.491641	-377.517641	1012.058139	-451.725721	-358.539492	993.263662	-432.633162	-347.272933	986.034453	-413.403869	-327.380329	979.016662	962.470710	-339.452326	879.223585	978.431046	-311.378449	855.883121	972.019553	-292.132348	843.184948	953.193665	-282.783002	845.533907	933.091521	-261.522979	849.118769	295.074701	-304.637283	932.196259	302.463800	-266.617596	1058.901668	308.592677	-313.911825	1184.444189	307.457745	-326.327771	1236.233115	357.795566	-291.055799	850.798368	233.253911	-286.404938	841.651618	416.378170	-375.167131	482.309967	176.546186	-346.659482	469.156742	352.485418	-206.854239	96.688345	274.509460	-209.361002	86.699381	387.040615	-305.422604	2.445712	219.238535	-308.762401	-6.563709	305.174321	-338.166356	1447.303176	384.590775	-342.139274	1348.813295	231.736720	-317.126721	1356.297374	309.887558	-392.440557	1524.734020	518.472075	-331.616819	1334.938884	108.676925	-295.842588	1355.114937	637.526572	-273.395956	1113.962531	-59.797138	-260.384917	1154.323339	853.810668	-281.551987	956.511319	-308.398366	-315.436155	1064.601064	955.577314	-294.952184	921.939373	982.193410	-298.074394	902.421236	982.269347	-304.487348	880.016088	958.718300	-270.879209	914.073944	979.715109	-270.394623	889.939725	978.502989	-278.378993	866.606474	923.544765	-237.690911	901.378393	932.379186	-237.812251	882.969618	932.464182	-246.407986	865.150213	941.436827	-250.595123	907.574654	960.262895	-254.580915	885.050595	958.782256	-265.600353	863.132060	894.129694	-312.460274	932.839394	915.166378	-328.840554	915.404320	939.552844	-335.030079	904.818058	-412.300229	-345.275581	1065.618634	-443.423033	-353.213131	1054.585934	-448.741913	-363.655359	1034.226537	-420.847654	-322.361141	1053.560853	-447.570384	-328.085601	1036.587000	-451.336622	-340.677291	1015.841007	-394.817412	-290.942401	1023.233056	-407.242954	-295.898944	1007.842302	-410.343051	-308.237523	992.793143	-408.716500	-302.475721	1037.463427	-432.299793	-311.509639	1021.948218	-434.785008	-326.580495	1002.504706	-346.543312	-356.047511	1062.223792	-368.101895	-378.285915	1052.688718	-393.204868	-389.553308	1048.403740	285.159171	-381.258264	917.899609	308.984369	-169.303283	1003.548384	295.524739	-288.730368	846.224993	297.071770	-275.280774	960.723996	854.079932	-280.112833	964.690387	-304.746389	-311.944738	1075.536072	366.451934	-202.156633	109.066293	262.177423	-202.239022	95.361397	405.876264	-378.935039	474.556983	187.355593	-351.945251	464.128003	639.376789	-270.161450	1116.972864	-63.792422	-257.131875	1154.495299	262.177423	-711.902976	95.361397	366.451934	-711.902976	109.066293	219.238535	-711.902976	-6.563709	387.040615	-711.902976	2.445712	257.656753	-711.902976	0.226572	341.788888	-711.902976	7.543757	252.724767	-711.902976	27.544454	352.529794	-711.902976	38.384750	187.892154	-711.902976	-0.210330	417.343169	-711.902976	14.047816	297.279179	-711.902976	40.270582	352.691948	-711.902976	55.650666
180	1.4917	291.024923	-460.418999	1179.565907	322.442621	-270.345241	1462.671757	323.578805	-187.026516	1267.111897	318.369031	-188.634709	1214.431405	311.872572	-197.231382	1160.918951	321.217835	-285.380930	1476.727605	299.681544	-412.845939	1384.410620	397.619367	-198.199809	89.800797	235.606000	-193.491936	75.223885	337.928891	-197.724640	118.601583	294.039726	-205.726579	106.244765	417.173713	-396.227777	910.352826	152.345121	-365.129292	906.978130	369.637489	-173.840940	991.605163	249.699369	-162.710786	994.174898	445.073366	-354.170114	1429.084420	178.511798	-317.147404	1437.585950	342.056304	-361.118019	7.424676	259.593159	-366.260558	-0.476515	299.737185	-136.738420	34.266852	355.427802	-124.050379	48.714422	462.229937	-383.329004	467.206389	128.367990	-345.805317	454.299331	352.958977	-382.539511	463.880569	241.166025	-366.320968	456.779659	-300.165802	-331.885993	1070.663214	853.305101	-302.691162	954.367399	-81.589699	-231.490746	1171.898842	664.425015	-255.240709	1132.236004	-34.704898	-276.728183	1103.664160	600.413740	-284.117520	1070.160270	829.784274	-254.168361	928.268015	-291.691393	-286.913186	1028.823614	227.411956	-381.322682	1403.213859	380.303830	-403.357923	1397.034883	253.221601	-447.479248	1657.278299	379.414946	-342.736006	1694.176912	353.272438	-467.672110	1656.141639	280.640215	-321.023345	1694.903493	352.946550	-312.784910	36.749445	418.130338	-289.472193	12.042964	255.002320	-318.393260	25.628293	190.098569	-283.470184	-2.939439	306.314468	-185.038254	1030.786037	305.345356	-194.775641	1055.433512	305.596232	-202.741340	1084.356904	306.177944	-204.488307	1109.895825	308.381855	-201.723352	1134.909391	315.278351	-192.922175	1187.012315	321.422219	-186.921880	1241.604447	325.025201	-188.900858	1289.840460	326.774061	-197.353721	1330.053210	327.030957	-208.453745	1362.659574	326.209664	-227.809593	1405.926943	325.215906	-241.094962	1429.441690	323.993593	-255.261332	1447.329879	-405.538946	-404.479861	1000.910401	-440.693766	-375.616521	980.195522	-439.483851	-356.247038	961.604118	-420.237154	-344.693959	955.203950	-400.928825	-324.460953	949.210405	946.282268	-337.298393	850.940645	961.702108	-308.919489	827.537477	954.865992	-289.327383	815.232456	936.078191	-279.874861	818.361640	916.023612	-258.539349	822.974861	295.036107	-303.941816	921.967626	302.956969	-265.272111	1048.443913	309.151024	-313.133568	1173.768163	307.845443	-325.877726	1225.473285	357.572794	-291.060895	840.314567	233.025163	-285.938591	831.507206	418.246627	-379.133999	473.092407	173.786953	-350.650072	460.155517	353.616744	-202.149600	91.497026	277.470171	-206.446171	81.768952	387.661666	-304.171711	0.811362	221.388862	-308.095396	-8.540785	305.101186	-338.501483	1436.492443	384.693950	-342.421442	1338.142753	231.926680	-316.825718	1345.423937	309.145629	-392.052710	1514.462590	518.394530	-332.398713	1322.295904	109.031856	-294.808596	1342.225313	630.476594	-272.713453	1098.087430	-54.216120	-257.324964	1137.522817	841.100931	-279.779315	933.091402	-299.252182	-312.716901	1038.667560	941.402018	-293.114662	894.450843	967.232585	-296.086490	873.882115	966.417789	-302.213728	851.411760	944.338381	-268.955231	886.773705	964.390993	-268.240988	861.854970	962.246776	-275.922924	838.487208	908.840895	-235.477895	875.864089	916.958451	-235.397428	857.127964	916.320384	-243.765712	839.211762	926.904321	-248.526156	881.202161	944.831192	-252.294391	857.919812	942.460537	-263.028145	835.937798	880.347490	-310.532570	907.493532	900.627553	-326.767176	889.054596	924.561620	-332.911551	877.457798	-402.775794	-343.700826	1035.524130	-433.392614	-351.810127	1023.268223	-437.862426	-362.001121	1002.580047	-411.149710	-320.701569	1023.506165	-437.182993	-326.460421	1005.503774	-440.062791	-338.777721	984.453321	-384.416312	-288.546056	994.595349	-396.227688	-293.404967	978.698194	-398.647815	-305.547953	963.367879	-398.680896	-300.444037	1008.147717	-421.591133	-309.499532	991.666615	-423.208863	-324.301273	971.927047	-336.820632	-353.701711	1034.328699	-357.769579	-376.027614	1023.701668	-382.573158	-387.502372	1018.355131	284.759417	-380.678535	908.665478	309.668429	-168.275863	992.890030	295.298979	-288.499743	835.910887	297.213923	-274.477199	950.777754	841.544688	-278.429762	941.317707	-295.928597	-309.399590	1049.743414	367.774129	-197.962224	104.201190	264.822863	-199.609257	90.734325	407.594457	-382.934257	465.543479	184.767008	-356.063142	455.539495	632.419378	-269.679114	1101.198137	-58.147298	-254.109465	1137.781501	264.822863	-711.902976	90.734325	367.774129	-711.902976	104.201190	221.388862	-711.902976	-8.540785	387.661666	-711.902976	0.811362	259.593159	-711.902976	-0.476515	342.056304	-711.902976	7.424676	255.002320	-711.902976	25.628293	352.946550	-711.902976	36.749445	190.098569	-711.902976	-2.939439	418.130338	-711.902976	12.042964	299.737185	-711.902976	34.266852	355.427802	-711.902976	48.714422
181	1.5000	291.352838	-459.900022	1167.812109	322.384506	-270.871669	1452.164769	324.387997	-187.059432	1256.817818	319.121301	-188.451409	1204.231024	312.552929	-196.714833	1150.695562	320.858657	-285.689563	1466.108084	299.384266	-412.978262	1373.552084	399.201572	-195.121840	84.871382	237.726092	-192.179933	71.237296	339.800537	-193.294242	113.470942	296.094656	-204.527125	102.169365	417.272776	-396.071017	900.729895	151.791707	-364.125699	898.378432	370.382726	-173.110768	981.008887	250.296712	-161.550358	983.927190	445.592314	-355.272740	1417.595744	177.857965	-317.081779	1425.789714	341.429919	-359.189749	7.049053	258.976787	-366.813123	-0.198038	301.664829	-136.551902	28.498737	358.824998	-120.968536	41.781515	463.574141	-387.963355	458.094060	125.366420	-350.871623	446.000546	354.384899	-385.849088	454.993397	237.995908	-371.767074	448.887408	-291.300982	-330.346316	1044.379711	840.794027	-301.769942	930.713415	-77.006362	-229.750514	1155.217767	658.613205	-255.931228	1115.882635	-27.787527	-273.531258	1087.590933	592.241645	-282.934636	1055.600286	816.558599	-252.784967	906.161666	-281.818300	-284.502357	1003.791690	227.002844	-381.305486	1391.919494	380.136788	-403.782636	1385.976553	252.326488	-447.197527	1647.179484	378.367394	-342.120349	1684.080839	352.443844	-467.230409	1646.311045	279.541224	-320.562482	1684.468389	352.862358	-310.080647	34.884900	418.453157	-288.500279	9.718149	255.366832	-318.253905	24.702875	190.366313	-283.317834	-4.076452	307.072639	-184.028715	1020.435572	306.115001	-193.807974	1045.163393	306.341708	-201.810017	1074.169040	306.890219	-203.658834	1099.679828	309.058994	-201.029673	1124.690056	315.984547	-192.567125	1176.810026	322.208017	-186.870411	1231.358767	325.840831	-188.978523	1279.507875	327.542365	-197.505161	1319.691658	327.662319	-208.713427	1352.296948	326.642424	-228.291690	1395.566225	325.506240	-241.638809	1419.038892	324.153304	-255.837947	1436.889768	-393.379241	-402.673692	969.670117	-428.170651	-373.649091	948.189914	-426.458508	-353.857696	929.891050	-407.057077	-342.065096	924.406290	-387.677759	-321.536511	919.530272	929.932594	-335.283965	823.495626	944.679499	-306.581348	799.970806	937.331259	-286.742955	788.057148	918.579698	-277.276993	791.932940	898.514867	-255.965799	797.520280	295.115590	-303.347051	911.866069	303.669870	-264.136374	1038.134456	309.643894	-312.577039	1163.246512	308.141321	-325.658143	1214.861989	357.324541	-290.963769	829.886377	232.751206	-285.608113	821.596622	419.749111	-383.086652	463.953525	170.597687	-355.701774	451.701134	355.204999	-197.865382	86.272925	279.755592	-205.001459	77.408046	387.709945	-303.235620	-1.088412	221.355975	-308.584243	-9.157629	305.064738	-339.054644	1425.828934	384.771287	-342.937171	1327.569962	232.101187	-316.739082	1334.745765	308.499306	-391.913503	1504.299164	518.249094	-333.290070	1309.736490	109.396137	-294.044524	1329.593062	623.412907	-272.254586	1082.559466	-48.548598	-254.827261	1121.090174	828.053355	-278.579444	910.168886	-289.517492	-310.563236	1012.873888	926.827669	-291.391581	867.616475	951.862156	-294.117421	846.053362	950.200856	-300.009876	823.566854	929.452121	-267.149627	860.087991	948.545039	-266.150802	834.435999	945.522428	-273.589969	811.086833	893.540680	-233.601481	850.884259	900.942028	-233.315185	831.855774	899.631679	-241.496041	813.889682	911.803603	-246.683747	855.396330	928.837836	-250.186771	831.412971	925.643802	-260.692388	809.424937	866.325021	-309.016764	882.779956	885.904014	-325.033486	863.415956	909.385979	-331.027955	850.856423	-392.573148	-342.346013	1005.363464	-422.643751	-350.490719	991.843820	-426.256806	-360.349685	970.829964	-400.704473	-319.207460	993.446589	-426.004201	-324.862063	974.395812	-427.996069	-336.827308	953.041792	-373.213381	-286.322743	966.109395	-384.387046	-290.996730	949.703932	-386.131793	-302.885383	934.085250	-387.860328	-298.577547	978.915334	-410.065740	-307.529211	961.442709	-410.822421	-321.991175	941.401780	-326.531738	-351.775467	1006.434441	-346.874028	-374.082595	994.652152	-371.359974	-385.666460	988.192558	284.532242	-380.098358	899.554163	310.339719	-167.330563	982.468039	295.037873	-288.285941	825.741500	297.435980	-273.714460	941.011101	828.676313	-277.277455	918.437541	-286.559641	-307.424337	1024.085701	369.501054	-194.208041	99.171162	266.910374	-198.353529	86.703330	408.979520	-386.906222	456.543729	181.681164	-361.319348	447.443977	625.427425	-269.432932	1085.741460	-52.396945	-251.640886	1121.404350	266.910374	-711.902976	86.703330	369.501054	-711.902976	99.171162	221.355975	-711.902976	-9.157629	387.709945	-711.902976	-1.088412	258.976787	-711.902976	-0.198038	341.429919	-711.902976	7.049053	255.366832	-711.902976	24.702875	352.862358	-711.902976	34.884900	190.366313	-711.902976	-4.076452	418.453157	-711.902976	9.718149	301.664829	-711.902976	28.498737	358.824998	-711.902976	41.781515
